<?xml version="1.0" encoding="utf-8"?>
<!-- Generator: Adobe Illustrator 17.0.0, SVG Export Plug-In . SVG Version: 6.00 Build 0)  -->
<!DOCTYPE svg PUBLIC "-//W3C//DTD SVG 1.1//EN" "http://www.w3.org/Graphics/SVG/1.1/DTD/svg11.dtd">
<svg version="1.1" id="Layer_1" xmlns="http://www.w3.org/2000/svg" xmlns:xlink="http://www.w3.org/1999/xlink" x="0px" y="0px"
	 width="32px" height="32px" viewBox="0 0 32 32" enable-background="new 0 0 32 32" xml:space="preserve">
<g>
	<path d="M16,0.321c-8.646,0-15.678,7.033-15.678,15.678c0,8.646,7.032,15.679,15.678,15.679c8.644,0,15.677-7.033,15.677-15.679
		C31.677,7.354,24.644,0.321,16,0.321z M16,29.182c-7.27,0-13.183-5.913-13.183-13.183C2.817,8.731,8.73,2.816,16,2.816
		c7.269,0,13.182,5.915,13.182,13.183C29.182,23.269,23.269,29.182,16,29.182z"/>
	<path d="M19.564,12.689V7.651c0-0.868-0.703-1.57-1.57-1.57h-3.397c-0.867,0-1.569,0.703-1.569,1.57v5.038H7.988
		c-0.867,0-1.569,0.703-1.569,1.57v3.468c0,0.867,0.702,1.57,1.569,1.57h5.039v5.038c0,0.867,0.702,1.57,1.569,1.57h3.397
		c0.867,0,1.57-0.703,1.57-1.57v-5.038h5.038c0.867,0,1.57-0.703,1.57-1.57v-3.468c0-0.868-0.703-1.57-1.57-1.57H19.564z"/>
</g>
</svg>
